<svg xmlns="http://www.w3.org/2000/svg" width="379.803" height="472.995" viewBox="0 0 379.803 472.995">
  <g id="Group_32" data-name="Group 32" transform="translate(-99.098 -21.752)">
    <g id="g3023" transform="translate(478.902 21.752) rotate(90)">
      <path id="path3025" d="M1554.2,381.421c34.034-15.342,69.329-10.656,78.856,10.465s-10.331,50.68-44.357,66.02-69.326,10.656-78.852-10.465S1520.181,396.762,1554.2,381.421Z" transform="translate(-1428.174 -87.129)" fill="#039e9a" fill-rule="evenodd"/>
      <path id="path3027" d="M1554.2,110.852c34.034,15.342,69.33,10.656,78.857-10.467s-10.331-50.677-44.358-66.021-69.325-10.653-78.851,10.467S1520.181,95.511,1554.2,110.852Z" transform="translate(-1428.174 -25.34)" fill="#039e9a" fill-rule="evenodd"/>
      <path id="path3029" d="M1468.813,273.631c36.483-7.864,70.013,4.124,74.9,26.773s-20.742,47.383-57.221,55.246-70.014-4.125-74.894-26.773,20.734-47.383,57.217-55.246Z" transform="translate(-1411 -69.116)" fill="#039e9a" fill-rule="evenodd"/>
      <path id="path3031" d="M1468.851,220.993c36.481,7.857,70.015-4.121,74.894-26.77s-20.735-47.383-57.216-55.245-70.015,4.122-74.894,26.772,20.734,47.384,57.216,55.243Z" transform="translate(-1411.007 -45.142)" fill="#039e9a" fill-rule="evenodd"/>
    </g>
    <path id="Path_1" data-name="Path 1" d="M186.438,102.779c0,73.353-93.219,162.844-93.219,162.844s-37.47-35.971-65.411-81.84C12.487,158.636,0,129.627,0,102.779,0,29.437,50.276,0,93.219,0,137.022,0,186.438,29.437,186.438,102.779Z" transform="translate(195.781 206.625)" fill="#039e9a" stroke="#039e9a" stroke-linejoin="round" stroke-width="45"/>
    <circle id="Ellipse_1" data-name="Ellipse 1" cx="68.377" cy="68.377" r="68.377" transform="translate(220.624 231.848)" fill="#78d9d5"/>
  </g>
</svg>
